<svg width="3957" height="1227" viewBox="0 0 3957 1227" fill="none" xmlns="http://www.w3.org/2000/svg">
<path d="M451.049 10.6905L1001.85 0.00938303C1029.16 -0.520184 1051.59 21.434 1051.59 48.7007V306.16C1051.59 325.83 1039.73 343.57 1021.54 351.125L465.296 582.12C447.103 589.676 435.249 607.415 435.249 627.086V1169.41C435.249 1207.05 394.302 1230.46 361.78 1211.41L24.1008 1013.67C9.17128 1004.93 0 988.943 0 971.664V362.821C0 347.535 7.19003 333.135 19.4178 323.933L422.629 20.4936C430.832 14.3204 440.778 10.8896 451.049 10.6905Z" fill="#FF7605"/>
<path d="M552.896 1178.24V720.583C552.896 701.024 564.617 683.363 582.659 675.737L989.2 503.891C1021.37 490.293 1057.01 513.865 1057.01 548.736V990.459C1057.01 1009.44 1045.96 1026.69 1028.71 1034.66L622.167 1222.44C589.837 1237.37 552.896 1213.8 552.896 1178.24Z" fill="#FF7605"/>
<path d="M1497.81 572.555H1425.6V460.527H1497.81V400.13C1497.81 350.773 1510.82 313.755 1536.84 289.076C1562.86 263.748 1600.92 251.084 1651.01 251.084H1744.68V363.112H1642.23V460.527H1744.68V572.555H1642.23V971.958H1497.81V572.555Z" fill="#FF7605"/>
<path d="M1800.62 971.958V460.527H1945.04L1951.55 543.334C1958.06 551.131 1957.07 543.655 1963.58 530.666C1970.08 517.028 1978.54 505.013 1988.95 494.622C2000 484.232 2013.02 476.114 2027.98 470.269C2042.94 463.774 2060.5 460.527 2080.67 460.527H2106.04V594.96H2069.94C2027.65 594.96 1996.1 600.481 1975.29 611.521C1955.12 622.561 1945.04 643.018 1945.04 672.893V971.958H1800.62Z" fill="#FF7605"/>
<path d="M2242.94 405.975C2213.66 405.975 2192.2 399.48 2178.54 386.491C2165.53 372.853 2159.02 355.643 2159.02 334.861V313.43C2159.02 292.648 2165.53 275.763 2178.54 262.774C2192.2 249.136 2213.66 242.317 2242.94 242.317C2272.21 242.317 2293.35 249.136 2306.36 262.774C2320.02 275.763 2326.85 292.648 2326.85 313.43V334.861C2326.85 355.643 2320.02 372.853 2306.36 386.491C2293.35 399.48 2272.21 405.975 2242.94 405.975ZM2170.73 460.527H2315.14V971.958H2170.73V460.527Z" fill="#FF7605"/>
<path d="M2425.54 251.084H2569.95V676.789H2575.81L2639.23 582.296L2741.69 460.527H2901.71L2730.95 656.332L2921.23 971.958H2749.49L2634.35 755.696L2569.95 827.783V971.958H2425.54V251.084Z" fill="#FF7605"/>
<path d="M3342.91 971.958C3316.89 971.958 3295.1 963.84 3277.53 947.604C3260.62 931.368 3249.89 909.612 3245.33 882.335H3239.48C3231.67 915.457 3214.43 940.785 3187.76 958.32C3161.09 975.205 3128.24 983.647 3089.21 983.647C3037.82 983.647 2998.46 970.009 2971.14 942.733C2943.82 915.457 2930.16 879.413 2930.16 834.602C2930.16 780.699 2949.67 740.759 2988.7 714.781C3028.39 688.154 3082.05 674.841 3149.71 674.841H3230.7V642.694C3230.7 618.015 3224.19 598.532 3211.18 584.245C3198.17 569.308 3176.38 561.839 3145.8 561.839C3117.18 561.839 3094.41 568.009 3077.5 580.348C3060.59 592.687 3046.6 606.65 3035.54 622.237L2949.67 546.253C2970.49 515.729 2996.51 492.025 3027.73 475.139C3059.61 457.605 3102.54 448.837 3156.54 448.837C3229.39 448.837 3284.04 464.748 3320.47 496.571C3356.9 528.393 3375.11 574.828 3375.11 635.875V859.93H3422.92V971.958H3342.91ZM3142.88 883.31C3166.95 883.31 3187.44 878.114 3204.35 867.723C3221.91 857.332 3230.7 840.447 3230.7 817.067V756.67H3160.44C3103.85 756.67 3075.55 775.828 3075.55 814.145V828.757C3075.55 847.591 3081.4 861.554 3093.11 870.646C3104.82 879.088 3121.41 883.31 3142.88 883.31Z" fill="#FF7605"/>
<path d="M3445.69 971.958L3614.5 711.859L3447.65 460.527H3611.58L3707.2 621.262H3711.1L3803.8 460.527H3956.02L3786.24 716.729L3957 971.958H3793.07L3694.52 805.377H3690.61L3595.96 971.958H3445.69Z" fill="#FF7605"/>
</svg>
